PathFileType	4	(X/Y/Z)	RBDS025\RBDS025runT35.trc
DataRate	CameraRate	NumFrames	NumMarkers	Units	OrigDataRate	OrigDataStartFrame	OrigNumFrames
150.000000	150.000000	6	33	mm	150.000000	1687	4500
Frame#	Time	L.ASIS			L.Heel.Bottom			L.Heel.Lateral			L.Heel.Top			L.Iliac.Crest			L.MT1			L.MT5			L.PSIS			L.Shank.Bottom.Lateral			L.Shank.Bottom.Medial			L.Shank.Top.Lateral			L.Shank.Top.Medial			L.Thigh.Bottom.Lateral			L.Thigh.Bottom.Medial			L.Thigh.Top.Lateral			L.Thigh.Top.Medial			R.ASIS			R.ASY			R.Heel.Bottom			R.Heel.Lateral			R.Heel.Top			R.Iliac.Crest			R.MT1			R.MT5			R.PSIS			R.Shank.Bottom.Lateral			R.Shank.Bottom.Medial			R.Shank.Top.Lateral			R.Shank.Top.Medial			R.Thigh.Bottom.Lateral			R.Thigh.Bottom.Medial			R.Thigh.Top.Lateral			R.Thigh.Top.Medial			
		X1	Y1	Z1	X2	Y2	Z2	X3	Y3	Z3	X4	Y4	Z4	X5	Y5	Z5	X6	Y6	Z6	X7	Y7	Z7	X8	Y8	Z8	X9	Y9	Z9	X10	Y10	Z10	X11	Y11	Z11	X12	Y12	Z12	X13	Y13	Z13	X14	Y14	Z14	X15	Y15	Z15	X16	Y16	Z16	X17	Y17	Z17	X18	Y18	Z18	X19	Y19	Z19	X20	Y20	Z20	X21	Y21	Z21	X22	Y22	Z22	X23	Y23	Z23	X24	Y24	Z24	X25	Y25	Z25	X26	Y26	Z26	X27	Y27	Z27	X28	Y28	Z28	X29	Y29	Z29	X30	Y30	Z30	X31	Y31	Z31	X32	Y32	Z32	X33	Y33	Z33	

1688	11.24666666666667	2147.469420080994	907.2860433860585	834.3010397550878	1816.107066519193	335.6224033357391	840.6576080588649	1845.605927241656	318.8012973954584	796.6947365245533	1860.12366581005	342.0737951547039	841.8241209197772	2075.991375399624	982.5012704282384	776.1499023125943	1902.016363192289	145.3440285963686	870.2377262511993	1889.028647774011	173.5502189578382	762.1322647276302	1984.98861147478	975.237295884373	870.7942361282701	1981.329842488687	331.6772498226823	781.0177547148343	1957.495398722416	374.1114911427464	808.0137919387212	2046.381887736216	377.48932231373	768.2583924472821	2023.663263701962	419.2540884379072	793.3438976224256	2202.57010831898	602.6769989986503	749.688840101539	2147.013636060749	565.0410553896919	778.3366417856184	2140.06443057774	691.4414784376261	743.9813591556028	2086.048891737566	656.1100523492926	771.2661247654465	2141.36697813287	912.4540166780959	1034.974628410032	1858.654957047646	77.11624860227849	953.7052721604443	1674.193610564773	84.31157435814711	912.6848615351516	1697.795602158171	97.12735995843808	958.5435610184718	1695.260802576115	123.9274060039457	916.2175779458422	2087.432948190495	977.4391357475457	1072.871649424261	1879.734417234807	40.20283192795446	909.5446508306721	1829.066328905233	38.18395800551147	1013.501649552717	1986.15265655622	978.6828855179638	973.7081564401497	1814.62538635563	202.6678825442621	992.3939159631253	1781.647883920842	231.584771401691	965.5955434860564	1855.714871832518	273.1950438762295	1015.256166204947	1819.764011125724	300.2769683479299	986.0223159234984	2010.266654781151	546.3317632968111	1059.21883012989	1948.551595464417	553.8616005177414	1024.283908313125	2009.288856079162	654.425262973442	1083.048402364537	1949.277036141806	661.0331838037955	1050.249211912523	
1689	11.25333333333333	2148.561613930526	912.4302739771742	833.8629566404343	1832.296292016941	314.4191125626456	844.0571955713916	1862.939263507041	300.4780787116376	799.8712725013652	1875.606895667425	324.857474313624	844.9401363053215	2077.163346759509	988.7045643108119	775.5018428066376	1934.788913208669	131.9410427145241	871.0927450541027	1918.643272477987	159.6754651297845	763.4597618429079	1986.260037772038	980.5658246187287	870.2003168641543	1998.289397341601	323.4919525881548	783.3097529148663	1971.671909753145	364.2643967739244	810.2646476355307	2059.902223854941	373.7800530732044	770.2154557757345	2034.467268363475	413.9200563420388	795.3073403188007	2208.10354163659	611.264602179786	750.2108053817841	2153.152912672775	572.7360430986085	778.7532467719874	2143.923092178452	698.7784265250261	743.6102824532917	2090.500588706554	662.5670431082209	770.8847139282632	2142.24394621721	914.9561105286265	1034.429084377916	1838.511641152787	77.5918509186515	955.6622435102586	1655.053831250134	94.43058351725799	914.1113924981918	1678.988287080917	105.0531749120907	960.3187895267924	1677.760578273894	132.8843277612434	918.6075146437704	2089.393305876334	980.8518115074958	1071.921768073058	1857.237949354294	40.18241721711284	910.2998660207631	1806.476293348109	38.94899416952855	1014.219885028863	1987.818995648899	982.9718980512308	973.2034809034437	1796.293492305375	209.2520954115319	995.2355781445154	1763.951493813402	237.9122432610681	967.4839822106971	1837.632846648502	279.8200740609354	1017.565513006956	1802.130845522712	306.7086947286022	987.6929192056776	1998.412885162013	552.2169497225736	1060.668722997864	1937.183963400892	561.9480811514508	1025.440833266665	2001.60741028618	660.4122049785819	1083.79713798236	1942.08277322629	669.1517166273816	1050.632690555096	
1690	11.26	2149.6940937473	917.5836979945665	833.2039112212653	1850.079880640809	292.6285316264306	847.8232134609976	1881.469569836576	281.6763895792487	803.3608497483215	1892.35551913978	307.0042332486591	848.3896217315003	2078.390897692872	995.109112754886	774.8071748683709	1968.648770396734	119.3177670419992	871.9210652649448	1949.004858140102	146.3849150005108	764.8684231387439	1987.715697126353	985.9149378674807	869.6624720410116	2015.635539327337	315.0291589585078	785.6967811550314	1986.33600965552	353.8706340902359	812.7362312614561	2073.405979537919	369.6537916204254	772.2517946912459	2045.329026392488	407.9223795768223	797.4490380234151	2212.778421260428	619.3752580709685	750.7997265395741	2158.322674916861	580.1635558333346	779.2637307690127	2147.239986477054	705.8431089311927	743.33388366207	2094.356125870464	668.9740473493908	770.7411874313814	2143.354566650588	917.3299306487324	1033.649035985132	1818.977669792375	78.27059353185821	957.8188982177676	1637.009011980496	105.4158738635656	915.8822876584218	1661.230762769729	113.7006172875333	962.3843120028038	1661.47628850756	142.4918594734376	921.3338245926195	2091.822885291062	984.1488301749039	1070.869821193483	1835.202509727704	40.38075388816262	911.2557988647732	1784.344702794467	40.03602624931384	1015.084838948888	1989.740240061031	987.2660746588549	972.7553557341629	1778.757639620793	216.2531544655384	998.3942039080066	1747.073339860647	244.5430431705918	969.5940060273012	1820.217720674566	286.9443785668813	1020.131078488842	1785.190774010554	313.5231805243441	989.5201661732898	1986.894151293796	558.6465779400671	1062.342088642773	1926.270563128738	570.5080078969762	1026.697193109492	1994.191203394429	666.8006354574242	1084.682536233807	1935.290929150191	677.5802707857684	1051.055697409192	
1691	11.26666666666667	2150.820360353905	922.6414302820627	832.3419413754582	1869.566793980735	270.4789299559009	851.8567663959509	1901.302852446875	262.5780836435217	807.073847043016	1910.477907931501	288.6865129609989	852.0925422216965	2079.602275684457	1001.586326524442	774.1061681141101	2003.47953788322	107.664338702546	872.7845021552872	1980.086239984436	133.8142474482331	766.3853022588357	1989.307200468223	991.1739241309862	869.2101422036776	2033.421501220913	306.3478828007195	788.1367372741211	2001.576148812326	343.0081223825413	815.371962380318	2086.972229177097	365.0950557472959	774.3170756238096	2056.358601128973	401.264021196156	799.7056622017886	2216.59385982085	626.8387273710804	751.4639801197618	2162.502605436332	587.133939125737	779.8493806462988	2150.008539583686	712.4866592796494	743.1963210232888	2097.578857616561	675.1625568267326	770.8341625869213	2144.6584111079	919.543823527198	1032.659996684395	1800.069120852143	79.2402831989527	960.1417000749215	1620.115484544963	117.1721505163365	918.0440820382109	1644.572131566372	123.0200735690073	964.7699970040131	1646.432590404087	152.6640054802976	924.4124845363517	2094.751456375164	987.3120255660334	1069.71551967332	1813.689495480472	40.89985874469127	912.4111939125277	1762.757348718633	41.52834221441066	1016.092891561921	1991.863564508748	991.4953051525866	972.3839360861531	1762.072300770068	223.590728558769	1001.811655644672	1731.041085009892	251.4176785021569	971.9171432974118	1803.536088184909	294.4781530719771	1022.906975929671	1768.99042248863	320.6459765652739	991.4905844967268	1975.740542474193	565.5367705948375	1064.155701847346	1915.828278315124	579.4495517515326	1027.987812263712	1987.056548958314	673.5092574038542	1085.654699579854	1928.911989563045	686.2316572771775	1051.470531219745	
1692	11.27333333333333	2151.902162641492	927.4970071274007	831.3163891423136	1890.809306479791	248.2106365255382	856.0390487861109	1922.515783560516	243.3800744962706	810.9070541191825	1930.030671838992	270.0971669903415	855.9480637294453	2080.740189228226	1007.997059424683	773.4388001811061	2039.127463143689	97.17866882628141	873.7652496237991	2011.870894950769	122.105693119964	768.0461711565438	1990.982610419368	996.2340642993463	868.8644234581153	2051.679147801607	297.5258250639172	790.5870631422243	2017.450494926372	331.7812187842299	818.1026898374058	2100.665935435264	360.1115951647818	776.3574300237194	2067.647923516914	393.9757385436058	802.0012295675933	2219.549652639519	633.4953469379727	752.2066142265403	2165.678408471168	593.4692691804521	780.4910473074593	2152.221879388939	718.5630553971926	743.22989140598	2100.137219120616	680.9664136380435	771.1495535078462	2146.106382009694	921.5840555276386	1031.508778805941	1781.783446870865	80.60559958124334	962.5959032814301	1604.38689346311	129.5863108460647	920.6284660545408	1629.020471363621	132.9497528857186	967.4978769657195	1632.602500968682	163.3113968540524	927.8486046597314	2098.164855980912	990.3320152957986	1068.469555062904	1792.750856312924	41.85968421533128	913.7636372396545	1741.793856245203	43.51852454301056	1017.242161218045	1994.124909627973	995.5935177441219	972.1017697188144	1746.274827145548	231.1942802755001	1005.423106184989	1715.86108639387	258.4950003592385	974.4444499525661	1787.649021023127	302.3346719696332	1025.84212333728	1753.566258178979	328.0156853914894	993.5954344019254	1964.997042949192	572.7967509808956	1066.011941667162	1905.887329170175	588.676334811694	1029.240266143904	1980.233904118754	680.4512766027108	1086.655582751812	1922.966072631942	695.016945801646	1051.827520266173	
1693	11.28	2152.909998211908	932.0470186677256	830.1841928932857	1913.802568582006	226.0717061758509	860.2412589156619	1945.150815780708	224.2893376297159	814.7519001539372	1951.015931459524	251.4442448492241	859.8417523137068	2081.76344931796	1014.19534865711	772.8411143770311	2075.39652346843	88.06906872407581	874.9582354821351	2044.339880097074	111.4100224836238	769.8929365009782	1992.688857509664	1000.994039562491	868.6375034103243	2070.411081604831	288.6592933695036	793.006371787429	2033.979511002207	320.3181319033441	820.8520972750363	2114.527586179502	354.7365528042628	778.3191751936131	2079.260803505618	386.1162871019695	804.2536365328932	2221.646531898049	639.2022920787373	753.0218037462608	2167.844262619356	599.0119599964125	781.1710046233841	2153.872872415248	723.934598392872	743.4495176637117	2102.007831397634	686.230145558943	771.662139873793	2147.644595478663	923.452430661156	1030.258904482415	1764.100181477766	82.48019519177778	965.1474056757849	1589.788682204734	142.531250199008	923.6433108642814	1614.538182834006	143.4181686969465	970.5738507991546	1619.904602479937	174.34454772031	931.6277163603788	2102.00238751257	993.2050804351592	1067.155291107275	1772.426173988738	43.3866180623931	915.3110944844976	1721.521700755472	46.10318266548505	1018.533990485916	1996.453494358235	999.5020348828842	971.9145667771012	1731.382524054671	239.0061820708058	1009.158762306836	1701.520260556274	265.7542724556429	977.1625853950736	1772.610557499145	310.4326599840634	1028.880900171345	1738.947289559779	335.5857412279931	995.8271372259646	1954.728352172792	580.3252587956218	1067.806691986769	1896.495490403167	598.0836969909425	1030.381617335964	1973.772006454152	687.531700401938	1087.62403950301	1917.485543689897	703.8425415217458	1052.081685887131	
